<?xml version="1.0" encoding="utf-8"?>
<!-- Generator: Adobe Illustrator 28.2.0, SVG Export Plug-In . SVG Version: 6.00 Build 0)  -->
<svg version="1.1" id="Camada_1" xmlns="http://www.w3.org/2000/svg" xmlns:xlink="http://www.w3.org/1999/xlink" x="0px" y="0px"
	 viewBox="0 0 1080 1080" style="enable-background:new 0 0 1080 1080;" xml:space="preserve">
<style type="text/css">
	.st0{fill:#fff;}
	.st1{fill:#fff;}
</style>
<rect x="-2411" y="119" class="st0" width="495" height="882"/>
<g>
	<g>
		<path class="st1" d="M610.22,615.7c-12.54-29.99-25.11-59.96-37.63-89.96c-1.19-2.86-2.39-5.72-3.58-8.58l0.07-0.05
			c-2.06-4.93-4.12-9.86-6.18-14.79c-13.39-32.03-26.77-64.07-40.15-96.1c-12.29-29.41-24.58-58.82-36.87-88.23
			c-4.3-10.29-8.59-20.59-12.91-30.86c-0.31-0.73-0.43-1.91-1.26-1.88c-0.84,0.02-0.82,1.22-1.12,1.95
			c-0.15,0.39-0.26,0.81-0.37,1.22c-6.92,24.45-13.84,48.91-20.76,73.36c-2.04,6.97-4.07,13.77-6.13,20.29
			c-6.06,19.18-28.85,86.19-39.05,103.72c-21.45,36.86-51.46,25.41-52.47,28.34l44.61,12.34c23.12,7.74,48.56-4.41,56.32-26.9
			c6.1-17.67,12.26-35.53,14.2-41.15c0.28,0.67,0.56,1.34,0.84,2.01c12.54,29.99,25.12,59.95,37.66,89.94
			c1.19,2.85,2.38,5.71,3.58,8.56l-0.07,0.05c2.06,4.93,4.12,9.86,6.18,14.79c13.38,32.03,26.75,64.08,40.13,96.11
			c12.28,29.42,24.57,58.83,36.85,88.25c4.3,10.29,8.58,20.59,12.9,30.87c0.31,0.73,0.42,1.91,1.26,1.89
			c0.84-0.02,0.82-1.22,1.12-1.95c0.15-0.39,0.26-0.81,0.37-1.22c9.75-34.42,19.5-68.84,29.24-103.26c0.26-0.91,0.45-1.85,0.66-2.7
			c-0.3-0.85-0.52-1.57-0.8-2.25C627.96,658.23,619.1,636.96,610.22,615.7z"/>
		<path class="st1" d="M513.58,680.87c-8.82-20.19-17.67-40.37-26.47-60.56c-0.42-0.97-10.92-25.03-21.26-48.71
			c-11.12-25.48-40.97-36.75-66.06-24.93l-48.7,19.75c1.45,3.32,33.87-13.67,61.9,27.08c13.33,19.37,46.11,95.37,54.97,117.17
			c7.78,19.14,15.5,40.37,23.94,62.03c2.75,7.04,6.04,13.86,9.07,20.78c0.22,0.49,0.26,1.26,0.94,1.29
			c0.69,0.03,0.73-0.75,1.01-1.21c0.14-0.24,0.25-0.51,0.36-0.77c9.63-21.91,19.26-43.82,28.89-65.73c0.25-0.58,0.46-1.18,0.67-1.73
			c-0.21-0.57-0.35-1.05-0.55-1.5C526.06,709.5,519.83,695.18,513.58,680.87z"/>
		<path class="st1" d="M728.77,559.18c-35.39,0-70.78,0-106.17,0c12.59,1.63,22.17,7.61,28.44,18.68
			c6.23,10.98,6.54,22.47,2.75,34.46c6.66-15.18,16.29-27.78,29.77-37.22c13.56-9.5,28.67-14.57,45.35-15.03
			C728.87,559.77,728.82,559.47,728.77,559.18z"/>
		<path class="st1" d="M558.29,399.93c8.82,20.19,17.67,40.37,26.47,60.56c0.42,0.97,10.92,25.03,21.26,48.71
			c11.12,25.48,40.97,36.75,66.06,24.93l48.7-19.75c-1.45-3.32-33.87,13.67-61.9-27.08c-13.33-19.37-46.11-95.37-54.97-117.17
			c-7.78-19.14-15.5-40.37-23.94-62.03c-2.75-7.04-6.04-13.86-9.07-20.78c-0.22-0.49-0.26-1.26-0.94-1.29
			c-0.69-0.03-0.73,0.75-1.01,1.21c-0.15,0.24-0.25,0.51-0.36,0.77c-9.63,21.91-19.26,43.82-28.89,65.73
			c-0.25,0.58-0.46,1.18-0.67,1.73c0.21,0.57,0.35,1.05,0.55,1.5C545.81,371.3,552.04,385.62,558.29,399.93z"/>
	</g>
</g>
</svg>
